# Blender v2.80 (sub 35) OBJ File: 'building_6.blend'
# www.blender.org
mtllib building_6.mtl
o Cube.019_Cube.021
v -1.000000 1.565382 0.813643
v -1.000000 5.398755 0.813643
v -1.000000 1.565382 -0.886668
v -1.000000 5.398755 -0.886668
v 1.000000 1.565382 0.813643
v 1.000000 5.398755 0.813643
v 1.000000 1.565382 -0.886668
v 1.000000 5.398755 -0.886668
v -1.000000 0.000000 -0.388518
v -1.000000 8.000000 -0.388518
v -1.000000 0.000000 -0.588518
v -1.000000 8.000000 -0.588518
v 1.000000 0.000000 -0.388518
v 1.000000 8.000000 -0.388518
v 1.000000 0.000000 -0.588518
v 1.000000 8.000000 -0.588518
v -1.000000 0.000000 1.000000
v -1.000000 1.200000 1.000000
v -1.000000 0.000000 -1.000000
v -1.000000 1.200000 -1.000000
v 1.000000 0.000000 1.000000
v 1.000000 1.200000 1.000000
v 1.000000 0.000000 -1.000000
v 1.000000 1.200000 -1.000000
v -1.000000 1.085003 0.127394
v -1.000000 2.288593 0.127394
v -1.000000 1.085003 -0.886668
v -1.000000 2.288593 -0.886668
v 1.000000 1.085003 0.127394
v 1.000000 2.288593 0.127394
v 1.000000 1.085003 -0.886668
v 1.000000 2.288593 -0.886668
v -1.000000 1.362686 0.574946
v -1.000000 2.566276 0.574946
v -1.000000 1.362686 -0.888775
v -1.000000 2.566276 -0.888775
v 1.000000 1.362686 0.574946
v 1.000000 2.566276 0.574946
v 1.000000 1.362686 -0.888775
v 1.000000 2.566276 -0.888775
v -1.000000 5.689059 0.465493
v -1.000000 5.968865 0.465493
v -1.000000 5.689059 -0.767754
v -1.000000 5.968865 -0.767754
v 1.000000 5.689059 0.465493
v 1.000000 5.968865 0.465493
v 1.000000 5.689059 -0.767754
v 1.000000 5.968865 -0.767754
v -1.000000 6.285549 0.756981
v -1.000000 6.617381 0.756981
v -1.000000 6.285549 -1.139659
v -1.000000 6.617381 -1.139659
v 1.000000 6.285549 0.756981
v 1.000000 6.617381 0.756981
v 1.000000 6.285549 -1.139659
v 1.000000 6.617381 -1.139659
v -1.000000 4.501927 0.079481
v -1.000000 6.703046 0.079481
v -1.000000 4.501927 -1.153765
v -1.000000 6.703046 -1.153765
v 1.000000 4.501927 0.079481
v 1.000000 6.703046 0.079481
v 1.000000 4.501927 -1.153765
v 1.000000 6.703046 -1.153765
v -1.000000 6.500685 0.618651
v -1.000000 8.000000 -0.294674
v -1.000000 6.500685 -0.492486
v -1.000000 8.000000 -0.492486
v 1.000000 6.500685 0.618651
v 1.000000 8.000000 -0.294674
v 1.000000 6.500685 -0.492486
v 1.000000 8.000000 -0.492486
vt 0.375000 0.000000
vt 0.625000 0.000000
vt 0.625000 0.250000
vt 0.375000 0.250000
vt 0.625000 0.500000
vt 0.375000 0.500000
vt 0.625000 0.750000
vt 0.375000 0.750000
vt 0.625000 1.000000
vt 0.375000 1.000000
vt 0.125000 0.500000
vt 0.125000 0.750000
vt 0.875000 0.500000
vt 0.875000 0.750000
vt 0.375000 0.000000
vt 0.625000 0.000000
vt 0.625000 0.250000
vt 0.375000 0.250000
vt 0.625000 0.500000
vt 0.375000 0.500000
vt 0.625000 0.750000
vt 0.375000 0.750000
vt 0.625000 1.000000
vt 0.375000 1.000000
vt 0.125000 0.500000
vt 0.125000 0.750000
vt 0.875000 0.500000
vt 0.875000 0.750000
vt 0.375000 0.000000
vt 0.625000 0.000000
vt 0.625000 0.250000
vt 0.375000 0.250000
vt 0.625000 0.500000
vt 0.375000 0.500000
vt 0.625000 0.750000
vt 0.375000 0.750000
vt 0.625000 1.000000
vt 0.375000 1.000000
vt 0.125000 0.500000
vt 0.125000 0.750000
vt 0.875000 0.500000
vt 0.875000 0.750000
vt 0.375000 0.000000
vt 0.625000 0.000000
vt 0.625000 0.250000
vt 0.375000 0.250000
vt 0.625000 0.500000
vt 0.375000 0.500000
vt 0.625000 0.750000
vt 0.375000 0.750000
vt 0.625000 1.000000
vt 0.375000 1.000000
vt 0.125000 0.500000
vt 0.125000 0.750000
vt 0.875000 0.500000
vt 0.875000 0.750000
vt 0.375000 0.000000
vt 0.625000 0.000000
vt 0.625000 0.250000
vt 0.375000 0.250000
vt 0.625000 0.500000
vt 0.375000 0.500000
vt 0.625000 0.750000
vt 0.375000 0.750000
vt 0.625000 1.000000
vt 0.375000 1.000000
vt 0.125000 0.500000
vt 0.125000 0.750000
vt 0.875000 0.500000
vt 0.875000 0.750000
vt 0.375000 0.000000
vt 0.625000 0.000000
vt 0.625000 0.250000
vt 0.375000 0.250000
vt 0.625000 0.500000
vt 0.375000 0.500000
vt 0.625000 0.750000
vt 0.375000 0.750000
vt 0.625000 1.000000
vt 0.375000 1.000000
vt 0.125000 0.500000
vt 0.125000 0.750000
vt 0.875000 0.500000
vt 0.875000 0.750000
vt 0.375000 0.000000
vt 0.625000 0.000000
vt 0.625000 0.250000
vt 0.375000 0.250000
vt 0.625000 0.500000
vt 0.375000 0.500000
vt 0.625000 0.750000
vt 0.375000 0.750000
vt 0.625000 1.000000
vt 0.375000 1.000000
vt 0.125000 0.500000
vt 0.125000 0.750000
vt 0.875000 0.500000
vt 0.875000 0.750000
vt 0.375000 0.000000
vt 0.625000 0.000000
vt 0.625000 0.250000
vt 0.375000 0.250000
vt 0.625000 0.500000
vt 0.375000 0.500000
vt 0.625000 0.750000
vt 0.375000 0.750000
vt 0.625000 1.000000
vt 0.375000 1.000000
vt 0.125000 0.500000
vt 0.125000 0.750000
vt 0.875000 0.500000
vt 0.875000 0.750000
vt 0.375000 0.000000
vt 0.625000 0.000000
vt 0.625000 0.250000
vt 0.375000 0.250000
vt 0.625000 0.500000
vt 0.375000 0.500000
vt 0.625000 0.750000
vt 0.375000 0.750000
vt 0.625000 1.000000
vt 0.375000 1.000000
vt 0.125000 0.500000
vt 0.125000 0.750000
vt 0.875000 0.500000
vt 0.875000 0.750000
vn -1.0000 0.0000 0.0000
vn 0.0000 0.0000 -1.0000
vn 1.0000 0.0000 0.0000
vn 0.0000 0.0000 1.0000
vn 0.0000 -1.0000 0.0000
vn 0.0000 1.0000 0.0000
vn 0.0000 0.5202 0.8540
usemtl None
s off
f 1/1/1 2/2/1 4/3/1 3/4/1
f 3/4/2 4/3/2 8/5/2 7/6/2
f 7/6/3 8/5/3 6/7/3 5/8/3
f 5/8/4 6/7/4 2/9/4 1/10/4
f 3/11/5 7/6/5 5/8/5 1/12/5
f 8/5/6 4/13/6 2/14/6 6/7/6
f 9/15/1 10/16/1 12/17/1 11/18/1
f 11/18/2 12/17/2 16/19/2 15/20/2
f 15/20/3 16/19/3 14/21/3 13/22/3
f 13/22/4 14/21/4 10/23/4 9/24/4
f 11/25/5 15/20/5 13/22/5 9/26/5
f 16/19/6 12/27/6 10/28/6 14/21/6
f 17/29/1 18/30/1 20/31/1 19/32/1
f 19/32/2 20/31/2 24/33/2 23/34/2
f 23/34/3 24/33/3 22/35/3 21/36/3
f 21/36/4 22/35/4 18/37/4 17/38/4
f 19/39/5 23/34/5 21/36/5 17/40/5
f 24/33/6 20/41/6 18/42/6 22/35/6
f 25/43/1 26/44/1 28/45/1 27/46/1
f 27/46/2 28/45/2 32/47/2 31/48/2
f 31/48/3 32/47/3 30/49/3 29/50/3
f 29/50/4 30/49/4 26/51/4 25/52/4
f 27/53/5 31/48/5 29/50/5 25/54/5
f 32/47/6 28/55/6 26/56/6 30/49/6
f 33/57/1 34/58/1 36/59/1 35/60/1
f 35/60/2 36/59/2 40/61/2 39/62/2
f 39/62/3 40/61/3 38/63/3 37/64/3
f 37/64/4 38/63/4 34/65/4 33/66/4
f 35/67/5 39/62/5 37/64/5 33/68/5
f 40/61/6 36/69/6 34/70/6 38/63/6
f 41/71/1 42/72/1 44/73/1 43/74/1
f 43/74/2 44/73/2 48/75/2 47/76/2
f 47/76/3 48/75/3 46/77/3 45/78/3
f 45/78/4 46/77/4 42/79/4 41/80/4
f 43/81/5 47/76/5 45/78/5 41/82/5
f 48/75/6 44/83/6 42/84/6 46/77/6
f 49/85/1 50/86/1 52/87/1 51/88/1
f 51/88/2 52/87/2 56/89/2 55/90/2
f 55/90/3 56/89/3 54/91/3 53/92/3
f 53/92/4 54/91/4 50/93/4 49/94/4
f 51/95/5 55/90/5 53/92/5 49/96/5
f 56/89/6 52/97/6 50/98/6 54/91/6
f 57/99/1 58/100/1 60/101/1 59/102/1
f 59/102/2 60/101/2 64/103/2 63/104/2
f 63/104/3 64/103/3 62/105/3 61/106/3
f 61/106/4 62/105/4 58/107/4 57/108/4
f 59/109/5 63/104/5 61/106/5 57/110/5
f 64/103/6 60/111/6 58/112/6 62/105/6
f 65/113/1 66/114/1 68/115/1 67/116/1
f 67/116/2 68/115/2 72/117/2 71/118/2
f 71/118/3 72/117/3 70/119/3 69/120/3
f 69/120/7 70/119/7 66/121/7 65/122/7
f 67/123/5 71/118/5 69/120/5 65/124/5
f 72/117/6 68/125/6 66/126/6 70/119/6
