# Blender v2.80 (sub 35) OBJ File: 'building_4.blend'
# www.blender.org
mtllib building_4.mtl
o Cube.028_Cube.033
v -1.408973 7.726256 0.172014
v -1.408973 7.726256 -0.406441
v 1.408973 7.726256 0.172014
v 1.408973 7.726256 -0.406441
v 1.408973 9.667513 0.172014
v -1.408973 9.667513 -0.406441
v 1.408973 9.667513 -0.406441
v -1.408973 9.667513 0.172014
v -1.000000 -0.000001 1.000000
v -1.000000 -0.000001 -1.000000
v 1.000000 -0.000001 1.000000
v 1.000000 -0.000001 -1.000000
v 1.000000 11.728823 1.000000
v -1.000000 11.728823 -1.000000
v 1.000000 11.728823 -1.000000
v -1.000000 11.728823 1.000000
v 1.000000 6.117166 -0.103178
v -1.000000 6.117166 -0.103178
v 1.000000 6.723200 -0.103178
v -1.000000 6.723200 -0.103178
v -1.000000 6.723200 -1.000000
v 1.000000 6.723200 -1.000000
v 1.000000 3.557024 -0.487537
v 1.000000 3.557024 -1.000000
v -1.000000 3.557024 -0.487537
v -1.000000 3.557025 -1.000000
v -1.000000 6.117166 -0.487537
v 1.000000 6.117166 -0.487537
v -1.408973 10.089697 0.578061
v -1.408973 10.089697 -1.421939
v 1.408973 10.089697 0.578061
v 1.408973 10.089697 -1.421939
v 1.408973 12.030954 0.578061
v -1.408973 12.030954 -1.421939
v 1.408973 12.030954 -1.421939
v -1.408973 12.030954 0.578061
v -1.408973 7.203443 -0.715747
v -1.408973 7.203443 -1.294202
v 1.408973 7.203443 -0.715747
v 1.408973 7.203443 -1.294202
v 1.408973 9.672440 -0.715747
v -1.408973 9.672440 -1.294202
v 1.408973 9.672440 -1.294202
v -1.408973 9.672440 -0.715747
v -1.408973 7.292836 -0.340570
v -1.408973 7.292836 -0.406441
v 1.408973 7.292836 -0.340570
v 1.408973 7.292836 -0.406441
v 1.408973 7.726322 0.172014
v -1.408973 7.726322 -0.406441
v 1.408973 7.726322 -0.406441
v -1.408973 7.726322 0.172014
vt 0.375000 0.000000
vt 0.619350 0.000000
vt 0.619350 0.250000
vt 0.375000 0.250000
vt 0.619350 0.500000
vt 0.375000 0.500000
vt 0.619350 0.750000
vt 0.375000 0.750000
vt 0.619350 1.000000
vt 0.375000 1.000000
vt 0.125000 0.500000
vt 0.125000 0.750000
vt 0.183958 0.554700
vt 0.183957 0.630200
vt 0.316043 0.630200
vt 0.316043 0.554700
vt 0.375000 0.000000
vt 0.619350 0.000000
vt 0.619350 0.250000
vt 0.515067 0.250000
vt 0.515067 0.137897
vt 0.502441 0.137897
vt 0.502441 0.185942
vt 0.449105 0.185942
vt 0.449105 0.250000
vt 0.375000 0.250000
vt 0.449105 0.500000
vt 0.375000 0.500000
vt 0.449105 0.564058
vt 0.502441 0.564058
vt 0.502441 0.612103
vt 0.515067 0.612103
vt 0.515067 0.500000
vt 0.619350 0.500000
vt 0.619350 0.750000
vt 0.375000 0.750000
vt 0.619350 1.000000
vt 0.375000 1.000000
vt 0.125000 0.500000
vt 0.125000 0.750000
vt 0.183958 0.554700
vt 0.183957 0.630200
vt 0.316043 0.630200
vt 0.316043 0.554700
vt 0.161283 0.750000
vt 0.338717 0.750000
vt 0.338717 0.696723
vt 0.161283 0.696723
vt 0.296873 0.630200
vt 0.203127 0.630200
vt 0.203127 0.592658
vt 0.296873 0.592658
vt 0.375000 0.786283
vt 0.375000 0.963717
vt 0.619350 0.963717
vt 0.619350 0.786283
vt 0.161283 0.750000
vt 0.338717 0.750000
vt 0.338717 0.678966
vt 0.161283 0.678966
vt 0.375000 0.786283
vt 0.375000 0.963717
vt 0.608398 0.963717
vt 0.608398 0.786283
vt 0.375000 0.000000
vt 0.619350 0.000000
vt 0.619350 0.250000
vt 0.375000 0.250000
vt 0.619350 0.500000
vt 0.375000 0.500000
vt 0.619350 0.750000
vt 0.375000 0.750000
vt 0.619350 1.000000
vt 0.375000 1.000000
vt 0.125000 0.500000
vt 0.125000 0.750000
vt 0.183958 0.554700
vt 0.183957 0.630200
vt 0.316043 0.630200
vt 0.316043 0.554700
vt 0.375000 0.000000
vt 0.619350 0.000000
vt 0.619350 0.250000
vt 0.375000 0.250000
vt 0.619350 0.500000
vt 0.375000 0.500000
vt 0.619350 0.750000
vt 0.375000 0.750000
vt 0.619350 1.000000
vt 0.375000 1.000000
vt 0.125000 0.500000
vt 0.125000 0.750000
vt 0.183958 0.554700
vt 0.183957 0.630200
vt 0.316043 0.630200
vt 0.316043 0.554700
vt 0.375000 0.000000
vt 0.619350 0.000000
vt 0.619350 0.250000
vt 0.375000 0.250000
vt 0.619350 0.500000
vt 0.375000 0.500000
vt 0.619350 0.750000
vt 0.375000 0.750000
vt 0.619350 1.000000
vt 0.375000 1.000000
vt 0.125000 0.500000
vt 0.125000 0.750000
vt 0.183958 0.554700
vt 0.183957 0.630200
vt 0.316043 0.630200
vt 0.316043 0.554700
vn -1.0000 0.0000 0.0000
vn 0.0000 0.0000 -1.0000
vn 1.0000 0.0000 0.0000
vn 0.0000 0.0000 1.0000
vn 0.0000 -1.0000 0.0000
vn 0.0000 1.0000 0.0000
vn 0.0000 -0.7636 0.6457
usemtl None
s off
f 1/1/1 8/2/1 6/3/1 2/4/1
f 2/4/2 6/3/2 7/5/2 4/6/2
f 4/6/3 7/5/3 5/7/3 3/8/3
f 3/8/4 5/7/4 8/9/4 1/10/4
f 2/11/5 4/6/5 3/8/5 1/12/5
f 6/13/6 8/14/6 5/15/6 7/16/6
f 9/17/1 16/18/1 14/19/1 21/20/1 20/21/1 18/22/1 27/23/1 25/24/1 26/25/1 10/26/1
f 10/26/2 26/25/2 24/27/2 12/28/2
f 12/28/3 24/27/3 23/29/3 28/30/3 17/31/3 19/32/3 22/33/3 15/34/3 13/35/3 11/36/3
f 11/36/4 13/35/4 16/37/4 9/38/4
f 10/39/5 12/28/5 11/36/5 9/40/5
f 14/41/6 16/42/6 13/43/6 15/44/6
f 22/33/2 21/20/2 14/19/2 15/34/2
f 18/45/6 17/46/6 28/47/6 27/48/6
f 19/49/5 20/50/5 21/51/5 22/52/5
f 17/53/2 18/54/2 20/55/2 19/56/2
f 25/57/6 23/58/6 24/59/6 26/60/6
f 23/61/2 25/62/2 27/63/2 28/64/2
f 29/65/1 36/66/1 34/67/1 30/68/1
f 30/68/2 34/67/2 35/69/2 32/70/2
f 32/70/3 35/69/3 33/71/3 31/72/3
f 31/72/4 33/71/4 36/73/4 29/74/4
f 30/75/5 32/70/5 31/72/5 29/76/5
f 34/77/6 36/78/6 33/79/6 35/80/6
f 37/81/1 44/82/1 42/83/1 38/84/1
f 38/84/2 42/83/2 43/85/2 40/86/2
f 40/86/3 43/85/3 41/87/3 39/88/3
f 39/88/4 41/87/4 44/89/4 37/90/4
f 38/91/5 40/86/5 39/88/5 37/92/5
f 42/93/6 44/94/6 41/95/6 43/96/6
f 45/97/1 52/98/1 50/99/1 46/100/1
f 46/100/2 50/99/2 51/101/2 48/102/2
f 48/102/3 51/101/3 49/103/3 47/104/3
f 47/104/7 49/103/7 52/105/7 45/106/7
f 46/107/5 48/102/5 47/104/5 45/108/5
f 50/109/6 52/110/6 49/111/6 51/112/6
