# Blender v2.80 (sub 35) OBJ File: 'building_2.blend'
# www.blender.org
mtllib building_2.mtl
o Cube_Cube.027
v -1.000000 0.000000 1.000000
v -1.000000 0.000000 -1.000000
v 1.000000 0.000000 1.000000
v 1.000000 0.000000 -1.000000
v 1.000000 1.233338 1.000000
v 1.000000 1.233339 0.278405
v -1.000000 1.233339 0.278405
v -1.000000 1.233338 1.000000
v 1.000000 1.468265 0.278405
v -1.000000 1.468265 0.278405
v 1.000000 1.468265 0.697929
v -1.000000 1.468266 0.697929
v 1.000000 1.797646 1.000000
v 1.000000 1.797647 0.697929
v -1.000000 1.797646 1.000000
v -1.000000 1.797647 0.697929
v -1.000000 5.272486 1.000000
v 0.999999 5.272486 0.697929
v 1.000000 5.272486 1.000000
v -1.000000 5.272486 0.697929
v -1.000000 12.000000 0.697929
v 1.000000 12.000000 0.697929
v 1.000000 10.599505 0.697929
v 1.000000 10.599505 0.307256
v -1.000000 10.599505 0.697929
v -1.000000 10.599505 0.307256
v 1.000000 11.238317 0.697929
v 1.000000 11.238317 0.307256
v -1.000000 11.238317 0.307256
v -1.000000 11.238317 0.697929
v 1.000000 10.742582 0.307256
v 1.000000 10.742582 -0.594345
v -1.000000 10.742582 0.307256
v -1.000000 10.742582 -0.594345
v 1.000000 11.095240 -0.594345
v 1.000000 11.095240 0.307256
v -1.000000 11.095240 -0.594345
v -1.000000 11.095240 0.307256
v 1.000000 11.728823 -1.000000
v 1.000000 11.728823 -0.567263
v -1.000000 11.728823 -0.567263
v -1.000000 11.728823 -1.000000
v 1.000000 12.000000 -0.567263
v -1.000000 12.000000 -0.567263
vt 0.375000 0.000000
vt 0.400695 0.000000
vt 0.400695 0.090199
vt 0.405589 0.090199
vt 0.405589 0.037759
vt 0.412451 0.037759
vt 0.412451 0.000000
vt 0.484843 0.000000
vt 0.484843 0.037759
vt 0.595823 0.037759
vt 0.595822 0.086593
vt 0.598804 0.086593
vt 0.598804 0.199293
vt 0.606151 0.199293
vt 0.606153 0.086593
vt 0.609134 0.086593
vt 0.609132 0.037759
vt 0.625000 0.037759
vt 0.625000 0.195908
vt 0.619350 0.195908
vt 0.619350 0.250000
vt 0.375000 0.250000
vt 0.619350 0.500000
vt 0.375000 0.500000
vt 0.619350 0.554092
vt 0.625000 0.554092
vt 0.625000 0.712241
vt 0.609132 0.712241
vt 0.609134 0.663407
vt 0.606153 0.663407
vt 0.606151 0.550707
vt 0.598804 0.550707
vt 0.598804 0.663407
vt 0.595822 0.663407
vt 0.595823 0.712241
vt 0.484843 0.712241
vt 0.484843 0.750000
vt 0.412451 0.750000
vt 0.412451 0.712241
vt 0.405589 0.712241
vt 0.405589 0.659801
vt 0.400695 0.659801
vt 0.400695 0.750000
vt 0.375000 0.750000
vt 0.400695 1.000000
vt 0.375000 1.000000
vt 0.125000 0.500000
vt 0.125000 0.750000
vt 0.375000 0.288192
vt 0.375000 0.461808
vt 0.625000 0.461808
vt 0.625000 0.288192
vt 0.336808 0.500000
vt 0.163192 0.500000
vt 0.163192 0.590199
vt 0.336808 0.590199
vt 0.836808 0.500000
vt 0.663192 0.500000
vt 0.663192 0.552441
vt 0.836808 0.552441
vt 0.412451 1.000000
vt 0.484843 1.000000
vt 0.625000 0.461808
vt 0.625000 0.288192
vt 0.407383 0.288192
vt 0.407382 0.461808
vt 0.836808 0.500000
vt 0.663192 0.500000
vt 0.663192 0.537759
vt 0.836808 0.537759
vt 0.375000 0.288192
vt 0.375000 0.461808
vt 0.545343 0.461808
vt 0.545343 0.288192
vt 0.336808 0.500000
vt 0.163192 0.500000
vt 0.163192 0.537759
vt 0.336808 0.537759
vt 0.565771 0.288192
vt 0.565771 0.461808
vt 0.590127 0.461808
vt 0.590127 0.288192
vt 0.375000 0.288192
vt 0.375000 0.461808
vt 0.430994 0.461808
vt 0.430994 0.288192
vt 0.336808 0.500000
vt 0.163192 0.500000
vt 0.163192 0.548834
vt 0.336808 0.548834
vt 0.836808 0.500000
vt 0.663192 0.500000
vt 0.663192 0.548834
vt 0.836808 0.548834
vt 0.375000 0.288192
vt 0.375000 0.461808
vt 0.625000 0.461808
vt 0.625000 0.288192
vt 0.336808 0.500000
vt 0.163192 0.500000
vt 0.163192 0.612700
vt 0.336808 0.612700
vt 0.836808 0.500000
vt 0.663192 0.500000
vt 0.663192 0.612700
vt 0.836808 0.612700
vt 0.569006 0.288192
vt 0.569006 0.461808
vt 0.625000 0.461808
vt 0.625000 0.288192
vt 0.875000 0.554092
vt 0.875000 0.712241
vt 0.183957 0.750000
vt 0.316043 0.750000
vt 0.316043 0.652004
vt 0.183958 0.652004
vt 0.375000 0.808957
vt 0.375000 0.941043
vt 0.567239 0.941043
vt 0.567239 0.808958
vn -1.0000 0.0000 -0.0000
vn 0.0000 0.0000 -1.0000
vn 1.0000 0.0000 0.0000
vn 0.0000 0.0000 1.0000
vn 0.0000 -1.0000 0.0000
vn 0.0000 1.0000 0.0000
usemtl None
s off
f 1/1/1 8/2/1 7/3/1 10/4/1 12/5/1 16/6/1 15/7/1 17/8/1 20/9/1 25/10/1 26/11/1 33/12/1 34/13/1 37/14/1 38/15/1 29/16/1 30/17/1 21/18/1 44/19/1 41/20/1 42/21/1 2/22/1
f 2/22/2 42/21/2 39/23/2 4/24/2
f 4/24/3 39/23/3 40/25/3 43/26/3 22/27/3 27/28/3 28/29/3 36/30/3 35/31/3 32/32/3 31/33/3 24/34/3 23/35/3 18/36/3 19/37/3 13/38/3 14/39/3 11/40/3 9/41/3 6/42/3 5/43/3 3/44/3
f 3/44/4 5/43/4 8/45/4 1/46/4
f 2/47/5 4/24/5 3/44/5 1/48/5
f 7/49/4 6/50/4 9/51/4 10/52/4
f 6/53/6 7/54/6 8/55/6 5/56/6
f 10/57/5 9/58/5 11/59/5 12/60/5
f 15/61/4 13/38/4 19/37/4 17/62/4
f 14/63/4 16/64/4 12/65/4 11/66/4
f 16/67/5 14/68/5 13/69/5 15/70/5
f 20/71/4 18/72/4 23/73/4 25/74/4
f 18/75/6 20/76/6 17/77/6 19/78/6
f 30/79/4 27/80/4 22/81/4 21/82/4
f 26/83/4 24/84/4 31/85/4 33/86/4
f 24/87/6 26/88/6 25/89/6 23/90/6
f 29/91/5 28/92/5 27/93/5 30/94/5
f 34/95/4 32/96/4 35/97/4 37/98/4
f 32/99/6 34/100/6 33/101/6 31/102/6
f 37/103/5 35/104/5 36/105/5 38/106/5
f 38/107/4 36/108/4 28/109/4 29/110/4
f 43/26/6 44/111/6 21/112/6 22/27/6
f 41/113/6 40/114/6 39/115/6 42/116/6
f 40/117/2 41/118/2 44/119/2 43/120/2
o Cube.024_Cube.028
v -0.801425 10.742582 0.188006
v -0.801425 11.095240 0.188006
v -0.801425 10.742582 -0.915959
v -0.801425 11.095240 -0.915959
v 0.801425 10.742582 0.188006
v 0.801425 11.095240 0.188006
v 0.801425 10.742582 -0.915959
v 0.801425 11.095240 -0.915959
vt 0.375000 0.000000
vt 0.625000 0.000000
vt 0.625000 0.250000
vt 0.375000 0.250000
vt 0.625000 0.500000
vt 0.375000 0.500000
vt 0.625000 0.750000
vt 0.375000 0.750000
vt 0.625000 1.000000
vt 0.375000 1.000000
vt 0.125000 0.500000
vt 0.125000 0.750000
vt 0.875000 0.500000
vt 0.875000 0.750000
vn -1.0000 0.0000 0.0000
vn 0.0000 0.0000 -1.0000
vn 1.0000 0.0000 0.0000
vn 0.0000 0.0000 1.0000
vn 0.0000 -1.0000 0.0000
vn 0.0000 1.0000 0.0000
usemtl None
s off
f 45/121/7 46/122/7 48/123/7 47/124/7
f 47/124/8 48/123/8 52/125/8 51/126/8
f 51/126/9 52/125/9 50/127/9 49/128/9
f 49/128/10 50/127/10 46/129/10 45/130/10
f 47/131/11 51/126/11 49/128/11 45/132/11
f 52/125/12 48/133/12 46/134/12 50/127/12
